<svg id="Layer_1" data-name="Layer 1" xmlns="http://www.w3.org/2000/svg" viewBox="0 0 26.84 22"><defs><style>.cls-1{fill:#1e1e1f;}</style></defs><title>locations</title><path class="cls-1" d="M53.8,714.2l-0.4-.5c-0.2-.3-6.1-7.9-7-11.1-0.8-2.9-.5-5.7,1-7.6a7.75,7.75,0,0,1,6.4-2.8c3,0,5.3.9,6.6,2.6s1.7,4.6.8,7.7-6.7,10.8-6.9,11.1Zm0-21a6.59,6.59,0,0,0-5.6,2.4,7.3,7.3,0,0,0-.8,6.7c0.7,2.6,5.1,8.5,6.4,10.3,1.3-1.8,5.6-7.7,6.4-10.3,0.8-2.8.6-5.3-.6-6.9S56.5,693.2,53.8,693.2Z" transform="translate(-40.6 -692.2)"/><path class="cls-1" d="M53.8,703.3a3.8,3.8,0,1,1,3.8-3.8A3.8,3.8,0,0,1,53.8,703.3Zm0-6.6a2.8,2.8,0,0,0-2.8,2.8,2.8,2.8,0,0,0,5.6,0A2.8,2.8,0,0,0,53.8,696.7Z" transform="translate(-40.6 -692.2)"/><path class="cls-1" d="M47.4,714.2l-0.4-.5c-0.2-.3-5.2-6.8-6-9.5a7.16,7.16,0,0,1,.7-6.3,5.87,5.87,0,0,1,4.6-2.6l0.1,1a5.12,5.12,0,0,0-3.8,2.2,6.79,6.79,0,0,0-.5,5.5c0.6,2.2,4.2,7.1,5.4,8.7a28.08,28.08,0,0,0,2.1-3l0.8,0.6c-1.3,1.9-2.6,3.5-2.6,3.5Z" transform="translate(-40.6 -692.2)"/><path class="cls-1" d="M60.7,714.2l-0.4-.5s-1.2-1.6-2.6-3.5l0.8-.6c0.9,1.2,1.7,2.4,2.1,3,1.2-1.6,4.8-6.5,5.4-8.7a6.79,6.79,0,0,0-.5-5.5,5.44,5.44,0,0,0-3.8-2.2l0.1-1a6,6,0,0,1,4.6,2.6,7.89,7.89,0,0,1,.7,6.3c-0.8,2.8-5.8,9.3-6,9.5Z" transform="translate(-40.6 -692.2)"/></svg>